<?xml version="1.0" encoding="UTF-8" standalone="no"?>
<!-- Created with Inkscape (http://www.inkscape.org/) -->

<svg
   width="1024"
   height="512"
   viewBox="0 0 1024 512"
   version="1.1"
   id="svg1"
   inkscape:version="1.4 (e7c3feb100, 2024-10-09)"
   sodipodi:docname="logo-text.svg"
   xmlns:inkscape="http://www.inkscape.org/namespaces/inkscape"
   xmlns:sodipodi="http://sodipodi.sourceforge.net/DTD/sodipodi-0.dtd"
   xmlns="http://www.w3.org/2000/svg"
   xmlns:svg="http://www.w3.org/2000/svg">
  <sodipodi:namedview
     id="namedview1"
     pagecolor="#505050"
     bordercolor="#eeeeee"
     borderopacity="1"
     inkscape:showpageshadow="0"
     inkscape:pageopacity="0"
     inkscape:pagecheckerboard="0"
     inkscape:deskcolor="#505050"
     inkscape:document-units="px"
     inkscape:zoom="1.1328125"
     inkscape:cx="485.95862"
     inkscape:cy="250.26207"
     inkscape:window-width="1704"
     inkscape:window-height="1001"
     inkscape:window-x="0"
     inkscape:window-y="0"
     inkscape:window-maximized="1"
     inkscape:current-layer="layer1"
     showgrid="true">
    <inkscape:grid
       id="grid1"
       units="px"
       originx="0"
       originy="0"
       spacingx="64"
       spacingy="64"
       empcolor="#0099e5"
       empopacity="0.30196078"
       color="#0099e5"
       opacity="0.14901961"
       empspacing="4"
       enabled="true"
       visible="true" />
  </sodipodi:namedview>
  <defs
     id="defs1">
    <rect
       x="512"
       y="64"
       width="512"
       height="192"
       id="rect2" />
    <rect
       x="503.17241"
       y="51.2"
       width="8.8275865"
       height="12.8"
       id="rect1" />
    <rect
       x="512"
       y="64"
       width="512"
       height="192"
       id="rect2-9" />
  </defs>
  <g
     inkscape:label="Layer 1"
     inkscape:groupmode="layer"
     id="layer1">
    <path
       d="m 442.87398,336.21585 c -1.30605,-3.37808 -6.4966,-2.36794 -6.4966,1.19225 0,2.9144 -1.07162,70.74262 -83.11922,74.64687 -74.34478,3.57676 -111.38001,-57.02904 -118.54702,-70.2085 l 16.67701,-11.12772 -1.60744,11.12772 c -1.25581,6.52446 6.01094,12.30323 12.18992,9.62071 l 21.76719,19.52332 c 1.27257,1.19226 2.88,1.72215 4.48752,1.72215 5.86048,0.16575 9.07533,-7.65036 4.48751,-11.52535 L 273.8086,344.21424 c 0.72,-0.49678 2.42791,-1.54 3.16463,-2.05336 l 24.96534,4.85169 c 8.63985,1.55657 11.30218,-11.06159 2.6121,-12.98234 l -20.99692,-4.10666 c 6.12839,-36.2645 11.10114,-65.01132 -38.81283,-49.82675 l 32.68445,-29.67393 c 7.51806,4.20602 26.28815,18.59579 35.02872,19.40717 v 20.86458 c 0.13374,8.67708 13.29495,8.72668 13.39527,0 v -18.61233 l 15.87327,14.57201 c 1.33953,1.19227 2.94696,1.72215 4.55439,1.72215 5.81033,0.24841 9.14222,-7.55074 4.55439,-11.45879 l -8.37192,-7.68344 c -0.0502,-0.0339 15.42147,-0.4802 15.42147,-0.4802 3.70044,-0.11573 6.59733,-3.16277 6.47988,-6.82245 -0.11702,-3.65957 -3.16462,-6.67325 -6.89866,-6.40831 l -19.72469,0.61268 c -0.75348,0 -1.45671,0.29802 -2.12648,0.46369 l -1.13863,-0.92731 17.21282,-12.25365 c 7.08256,-5.0009 -0.60281,-15.74752 -7.76925,-10.73007 l -20.22707,14.30706 -23.91045,-19.20836 c 5.76019,-9.33923 28.19694,-42.59055 52.50945,-45.90131 30.47433,-4.17292 80.70593,-35.23778 85.59681,-49.67839 4.55439,-13.51223 -26.25472,-30.33607 -37.64048,-36.03262 -1.9423,-4.504073 -9.17565,-18.943827 -24.91519,-21.063395 -18.82025,-2.583247 -28.80003,5.69655 -32.14863,9.273105 -45.14097,-3.51051 -70.19119,40.80164 -76.15369,52.85773 l -27.79529,-11.12773 0.53582,-8.80933 26.52262,-4.3714 c 8.70672,-1.4903 6.58061,-14.27399 -2.14324,-13.048468 l -16.54325,2.632888 13.34511,-13.296887 c 2.59533,-2.599778 2.57857,-6.789383 -0.0343,-9.3723 -2.62882,-2.583203 -6.86523,-2.566658 -9.47699,0.0339 l -7.92013,7.882237 -2.81301,-18.248189 c -1.40648,-8.428658 -14.43344,-6.75633 -13.24439,2.003662 -0.0172,-0.01695 3.73393,23.960854 3.66697,23.845129 L 217.39659,80.131355 c -5.82704,-6.342172 -15.8064,2.268608 -9.97936,8.809335 l 15.0027,16.62546 -14.06481,14.10825 c -4.75542,4.76902 -4.88917,12.38631 -0.2679,17.35416 l 17.14593,18.28125 c -66.37197,44.84155 -69.58683,95.91037 -68.78525,112.00635 l -33.08653,-9.20696 c -13.47885,-4.17291 -27.728395,8.3956 -25.049351,22.12318 l 6.228691,37.42348 c -3.41582,2.84819 -3.75068,2.78193 -4.08557,2.71567 4.08557,-2.71567 1.00465,0.19882 1.00465,0.19882 -1.00465,-0.19882 -30.072251,-3.77546 -30.072251,-3.77546 -8.539537,-0.91073 -10.44831,11.93909 -1.607438,13.18116 l 20.561839,2.51698 c -0.351488,0.82795 -0.4521,1.68904 -0.468848,2.56666 l -20.076183,10.99548 c -5.994217,2.89782 -3.466005,12.70085 3.21486,12.38631 -1.15533,2.21892 27.560811,-14.25747 27.460081,-14.04213 0.18432,-0.0992 0.31805,-0.26493 0.48558,-0.38067 l 26.4056,-0.5961 c 7.76924,0.0497 13.99794,-7.6669 12.32364,-15.10191 l -3.01391,-15.36685 22.23613,19.60598 c 2.77956,8.03104 88.74311,126.13113 183.91594,114.6558 84.50803,-5.38158 119.26713,-53.70133 99.99509,-111.01439 z"
       id="path1"
       sodipodi:nodetypes="csccccccccccccccccccccccccsccccccccccccccccccccccccccccccccccccccccccccccccccccc"
       style="fill:#f59e0b;fill-opacity:1;stroke-width:4.26274" />
    <text
       xml:space="preserve"
       style="font-style:normal;font-variant:normal;font-weight:normal;font-stretch:normal;font-size:136.678px;font-family:Knewave;-inkscape-font-specification:'Knewave, Normal';font-variant-ligatures:normal;font-variant-caps:normal;font-variant-numeric:normal;font-variant-east-asian:normal;text-align:start;writing-mode:lr-tb;direction:ltr;text-anchor:start;display:none;fill:#f59e0b;stroke-width:0.644687"
       x="387.23306"
       y="298.6861"
       id="text3"><tspan
         sodipodi:role="line"
         id="tspan3"
         x="387.23306"
         y="298.6861"
         style="stroke-width:0.644687">Revenge</tspan></text>
    <text
       xml:space="preserve"
       style="font-style:normal;font-variant:normal;font-weight:normal;font-stretch:normal;font-size:141.338px;font-family:Knewave;-inkscape-font-specification:'Knewave, Normal';font-variant-ligatures:normal;font-variant-caps:normal;font-variant-numeric:normal;font-variant-east-asian:normal;text-align:start;writing-mode:lr-tb;direction:ltr;text-anchor:start;display:none;fill:#f59e0b;stroke-width:0.666668"
       x="489.1319"
       y="201.41533"
       id="text3-6"><tspan
         sodipodi:role="line"
         id="tspan3-1"
         x="489.1319"
         y="201.41533"
         style="stroke-width:0.666668">Gecko's</tspan></text>
    <path
       d="m 411.15171,299.09613 q -1.2301,5.46712 -8.47403,6.69722 -6.69723,1.2301 -12.71106,-1.50346 -6.69722,-2.87023 -5.87715,-8.064 -0.82007,-7.92732 8.33736,-34.44285 13.6678,-39.7733 27.3356,-56.85805 3.55362,-4.37369 6.01383,-5.6038 2.59688,-1.36678 5.87715,-2.4602 3.28027,-1.09342 6.8339,-2.05017 7.10726,-1.91349 13.39444,-2.59688 6.42387,-0.82007 11.48096,1.50346 5.05708,2.18684 7.79064,6.56054 2.87024,4.3737 3.55363,10.38753 0.68339,5.87715 -0.41004,12.4377 -1.09342,6.42386 -3.96366,13.12108 -2.87023,6.56055 -7.24393,12.30102 -9.56746,12.57438 -22.41519,16.26468 l 1.36678,2.32353 q 1.77681,2.73356 4.23702,6.01383 2.59688,3.28027 5.05708,6.69722 2.59688,3.41695 4.64705,6.8339 2.05017,3.41695 3.00692,6.42387 2.18685,6.69722 -3.41695,9.70414 -4.51037,2.73356 -7.10726,1.36678 -1.09342,-0.68339 -2.18684,-1.77682 -1.09343,-0.95674 -3.00692,-1.64013 -8.064,2.32352 -12.30102,-4.10034 -2.59688,-4.10034 -3.96366,-7.51729 -1.36678,-3.41695 -2.32353,-5.74048 -2.4602,-5.05708 -5.60379,-8.74739 -1.50346,3.69031 -3.41695,9.43078 -2.32353,7.24393 -5.19377,15.03458 z m 27.60896,-79.54659 q -2.59689,5.87715 -3.55363,8.20068 -1.91349,4.64705 -4.23702,10.25085 -0.41003,3.00691 -0.68339,4.23701 l 1.91349,-1.91349 2.32353,-1.09342 q 2.4602,-1.36678 4.51037,-2.4602 2.05017,-1.09343 3.69031,-2.73356 3.14359,-3.1436 5.46712,-10.25085 0,-1.36678 0.41003,-2.73356 0.54671,-1.36678 0.68339,-2.73356 0.54671,-3.00692 -2.4602,-4.23702 -2.73356,-0.27336 -6.8339,4.51037 -0.82007,0.95675 -1.2301,0.95675 z m 75.7197,58.90821 q -2.59688,1.23011 -5.05708,1.9135 -2.46021,0.68338 -5.74048,1.36677 -8.61071,1.77682 -12.43769,2.05017 0.41003,1.36678 4.10034,3.28028 2.4602,0.41003 5.33044,-0.68339 3.00691,-1.23011 6.15051,-2.18685 3.28027,-1.09343 6.28718,-1.2301 3.1436,-0.13668 5.87716,2.32352 1.09342,2.46021 1.77681,2.87024 0.68339,0.41003 1.2301,0.41003 0.54672,0 1.23011,0.41004 0.68339,0.41003 1.91349,3.14359 1.36678,2.73356 -0.68339,5.19377 -1.91349,2.4602 -6.01383,4.23701 -4.10034,1.77682 -9.56746,2.87024 -5.46712,1.09343 -10.93424,1.50346 -12.30102,0.95675 -18.72489,-1.91349 -9.2941,-3.1436 -12.02766,-12.4377 -3.55363,-12.30102 3.96366,-28.70238 3.41695,-7.65397 10.79756,-16.40136 6.42387,-7.65397 14.35119,-11.07091 9.15743,-3.96367 19.13492,-3.69031 10.66088,0.27336 14.76122,9.2941 2.05017,4.78373 0.82007,13.39445 -2.18685,11.20759 -5.74047,15.85464 -3.55363,4.51038 -10.79757,8.20068 z m -7.92732,-21.59512 q -7.24393,-1.50346 -11.34427,8.20068 -1.2301,2.59688 -1.91349,5.46712 4.64705,0.54671 9.84081,-5.19376 1.91349,-2.32353 2.87024,-4.64706 0.95674,-2.4602 0.54671,-3.82698 z m 56.31139,-18.86156 q 0.68339,8.20068 1.2301,16.53803 0.54671,8.20068 1.64013,16.40136 2.46021,-5.05708 4.51038,-10.66088 2.18685,-5.6038 4.64705,-11.07092 5.87715,-12.84773 12.98441,-18.86156 4.3737,-4.78373 13.12109,-4.78373 5.19376,0 6.56054,3.28027 0.68339,1.64014 -0.41003,4.3737 6.69722,4.78373 2.87023,11.07091 -1.09342,1.64014 -2.18684,3.00692 -5.87716,9.84082 -10.79757,18.17817 -8.064,13.80448 -14.48786,23.6453 -2.18685,3.28027 -6.15051,7.38061 -3.82699,3.96366 -8.47404,6.8339 -10.93424,7.10725 -17.3581,2.59688 -4.23702,-0.54671 -7.92733,-2.73356 -3.6903,-2.18685 -5.60379,-5.74048 -2.87024,-7.51729 1.36678,-34.44285 0.95674,-6.01383 1.2301,-9.02075 0.27335,-3.00691 0.68339,-5.46712 0.41003,-2.4602 0.68339,-4.64705 0.27335,-2.18685 0.54671,-4.3737 0.27336,-2.32352 1.2301,-4.23701 2.32353,-4.3737 8.47404,-4.78373 h 1.64013 q 2.46021,0.54671 4.64705,1.2301 3.69031,1.36678 4.92041,5.19376 0.13668,0.41004 0.41004,1.09343 z m 87.06398,40.45668 q -2.59688,1.23011 -5.05709,1.9135 -2.4602,0.68338 -5.74047,1.36677 -8.61072,1.77682 -12.4377,2.05017 0.41003,1.36678 4.10034,3.28028 2.4602,0.41003 5.33044,-0.68339 3.00692,-1.23011 6.15051,-2.18685 3.28027,-1.09343 6.28719,-1.2301 3.14359,-0.13668 5.87715,2.32352 1.09343,2.46021 1.77682,2.87024 0.68339,0.41003 1.2301,0.41003 0.54671,0 1.2301,0.41004 0.68339,0.41003 1.91349,3.14359 1.36678,2.73356 -0.68339,5.19377 -1.91349,2.4602 -6.01383,4.23701 -4.10034,1.77682 -9.56746,2.87024 -5.46712,1.09343 -10.93424,1.50346 -12.30102,0.95675 -18.72488,-1.91349 -9.29411,-3.1436 -12.02767,-12.4377 -3.55363,-12.30102 3.96366,-28.70238 3.41695,-7.65397 10.79757,-16.40136 6.42386,-7.65397 14.35119,-11.07091 9.15742,-3.96367 19.13491,-3.69031 10.66089,0.27336 14.76123,9.2941 2.05017,4.78373 0.82007,13.39445 -2.18685,11.20759 -5.74048,15.85464 -3.55363,4.51038 -10.79756,8.20068 z m -7.92733,-21.59512 q -7.24393,-1.50346 -11.34427,8.20068 -1.2301,2.59688 -1.91349,5.46712 4.64705,0.54671 9.84081,-5.19376 1.9135,-2.32353 2.87024,-4.64706 0.95675,-2.4602 0.54671,-3.82698 z m 48.93076,-17.35811 q 9.15743,-3.6903 12.30102,-0.13667 1.64014,1.91349 1.64014,5.33044 v 0.68339 q 5.05708,-5.87716 17.63146,-9.84082 13.25777,-4.10034 21.86848,-2.32352 11.20759,2.32352 12.57437,14.62454 1.09343,10.38753 -4.78373,26.37886 -1.91349,4.10034 -3.00691,6.69722 -0.95675,2.4602 -1.77682,4.51037 -1.77681,3.82698 -5.60379,9.15743 -2.18685,4.10034 -6.8339,6.28718 -4.51038,2.18685 -9.02075,2.46021 -4.3737,0.41003 -7.24393,-1.36678 -2.87024,-1.64014 -1.64014,-5.33044 3.14359,-8.47404 5.19376,-15.44462 2.05017,-6.97057 4.23702,-11.89098 2.05017,-6.97058 0.54671,-8.74739 -1.2301,-1.36678 -4.23701,0.41003 -2.59689,1.64014 -3.69031,3.82698 -2.4602,1.77682 -9.2941,14.21452 -1.9135,3.41694 -3.82699,6.83389 -1.77681,3.28028 -3.41695,6.15051 -1.50346,2.87024 -2.73356,4.78373 -1.09342,1.9135 -2.05017,2.46021 -0.82006,0.68339 -1.50345,0.82007 -0.54672,0.27335 -0.95675,0.54671 -0.41003,0.27335 -0.68339,1.77681 -0.54671,3.1436 -6.56054,4.64705 -9.70414,2.46021 -17.49479,-0.82006 -2.59688,-1.09343 -4.10034,-3.00692 -3.14359,-6.28719 10.79756,-42.78021 4.92041,-12.84773 6.42387,-15.30794 3.41695,-5.19376 4.3737,-5.87715 1.09342,-0.68339 2.87023,0.27335 z m 123.69364,4.64706 q 2.32353,-4.23702 6.15051,-4.23702 5.87715,3.28027 7.38061,10.66088 1.50346,7.38061 -3.28027,13.25777 -0.13668,0.13668 0.13668,2.32352 2.4602,13.6678 -1.77682,28.42903 -1.50345,4.9204 -3.55362,9.15742 -1.9135,4.23702 -4.92041,10.66089 -2.87024,6.42386 -8.20068,12.71105 -5.33044,6.28719 -12.02766,9.97749 -14.07784,7.92733 -31.43594,3.41695 -6.28719,-2.4602 -8.74739,-5.74047 -3.1436,-3.96367 -2.18685,-8.47404 0.95674,-5.6038 6.56054,-6.15051 2.73356,-0.27335 6.8339,2.05017 4.64705,0.95675 7.51729,-0.13668 2.87024,-1.09342 4.51037,-2.05017 1.77682,-0.82006 4.3737,-2.18684 4.51037,-2.32353 10.25085,-10.66089 3.14359,-4.37369 6.28719,-11.75431 -5.05709,6.42387 -16.12801,6.28719 -3.14359,-0.13668 -7.10725,-0.27335 -3.82699,-0.13668 -6.97058,-2.59689 -3.14359,-2.4602 -5.05708,-6.42386 -1.9135,-3.96366 -2.59689,-9.02075 -0.54671,-5.19376 0,-10.5242 2.18685,-18.58821 15.58129,-29.38577 9.15743,-7.51729 19.68164,-8.064 5.05708,-0.27336 9.56746,1.09342 5.46712,2.05017 9.15742,7.65397 z m -16.67471,31.0259 q 0,-0.41003 0.13667,-0.68339 -0.68339,-0.27335 -1.36678,-0.41003 -0.68339,-0.27336 -2.4602,-0.82007 -1.77681,-0.54671 -4.78373,0.68339 -3.00692,1.09342 -5.33044,3.14359 -2.18685,1.9135 -3.55363,4.10034 -1.2301,2.18685 -0.41003,3.69031 0.95674,1.50346 3.28027,1.2301 2.32352,-0.41003 5.05708,-2.05017 6.01384,-3.6903 9.43079,-8.88407 z m 81.05004,3.28027 q -2.59688,1.23011 -5.05708,1.9135 -2.46021,0.68338 -5.74048,1.36677 -8.61071,1.77682 -12.4377,2.05017 0.41004,1.36678 4.10034,3.28028 2.46021,0.41003 5.33044,-0.68339 3.00692,-1.23011 6.15051,-2.18685 3.28028,-1.09343 6.28719,-1.2301 3.1436,-0.13668 5.87716,2.32352 1.09342,2.46021 1.77681,2.87024 0.68339,0.41003 1.2301,0.41003 0.54671,0 1.2301,0.41004 0.68339,0.41003 1.91349,3.14359 1.36678,2.73356 -0.68339,5.19377 -1.91349,2.4602 -6.01383,4.23701 -4.10034,1.77682 -9.56746,2.87024 -5.46712,1.09343 -10.93424,1.50346 -12.30102,0.95675 -18.72488,-1.91349 -9.2941,-3.1436 -12.02766,-12.4377 -3.55363,-12.30102 3.96366,-28.70238 3.41695,-7.65397 10.79756,-16.40136 6.42386,-7.65397 14.35119,-11.07091 9.15742,-3.96367 19.13492,-3.69031 10.66088,0.27336 14.76122,9.2941 2.05017,4.78373 0.82007,13.39445 -2.18685,11.20759 -5.74048,15.85464 -3.55363,4.51038 -10.79756,8.20068 z m -7.92732,-21.59512 q -7.24394,-1.50346 -11.34428,8.20068 -1.2301,2.59688 -1.91349,5.46712 4.64705,0.54671 9.84082,-5.19376 1.91349,-2.32353 2.87024,-4.64706 0.95674,-2.4602 0.54671,-3.82698 z"
       id="text3-5"
       style="font-size:136.678px;font-family:Knewave;-inkscape-font-specification:'Knewave, Normal';fill:#f59e0b;stroke-width:0.644687"
       aria-label="Revenge" />
    <path
       d="m 545.24308,94.705141 q 20.35267,-4.098802 31.65971,5.088168 5.37085,4.381481 7.0669,12.720421 1.8374,8.33894 -1.83739,18.65661 -1.55472,4.8055 -5.37084,7.20824 -3.81613,2.40275 -7.91493,2.82676 -3.95747,0.28268 -7.20824,-0.98936 -3.25077,-1.41338 -3.53345,-3.95747 l -1.27204,-2.82676 q -3.39211,-5.08817 -11.73106,-1.27204 -7.20823,3.25077 -14.41647,11.30704 -7.63225,8.62162 -9.89366,15.54718 -2.54409,7.63225 -2.54409,10.035 -0.28267,5.37084 3.81613,9.61098 5.9362,3.81613 11.87239,3.53345 5.9362,-0.42401 10.60035,-2.68542 4.66416,-2.40275 7.63225,-5.37084 2.9681,-2.9681 2.9681,-4.24014 0.42402,-0.84803 0.84803,-1.69606 0.42401,-0.84803 0.70669,-1.69606 -0.56535,0 0.28268,0 0.84802,-0.14133 0.42401,0 -0.42401,0 0.42401,0.14134 l 0.84803,0.28268 q -6.92556,6.21887 -13.42711,2.54408 -2.54408,-1.55472 -4.52281,-3.25077 -1.97874,-1.8374 -3.67479,-1.69606 -3.10944,-1.69605 -1.41338,-6.64288 0.70669,-1.97874 2.54408,-3.67479 1.97873,-1.8374 4.94683,-2.54409 14.1338,-6.07753 26.14753,-2.82676 5.37085,1.41338 7.34958,5.79486 2.12007,4.24014 1.83739,9.61099 -0.28267,5.37084 -2.40274,10.88302 -1.97874,5.51218 -4.38148,8.9043 -2.40275,3.25077 -6.78423,7.77359 -4.24014,4.52281 -10.74168,8.76295 -15.9712,10.31767 -34.2038,9.89366 -26.43021,-0.42401 -31.2357,-21.62471 -1.55471,-6.78423 -1.41338,-15.26451 1.41338,-24.59281 14.69915,-45.93485 6.36021,-10.17633 17.1019,-20.06999 6.78423,-6.07754 15.26451,-9.328309 4.52281,-1.837394 10.88302,-3.53345 z m 83.53075,85.792169 q -2.68542,1.27204 -5.22951,1.97873 -2.54408,0.70669 -5.93619,1.41338 -8.9043,1.83739 -12.86176,2.12007 0.42401,1.41338 4.24014,3.39211 2.54408,0.42401 5.51218,-0.70669 3.10944,-1.27204 6.36021,-2.26141 3.39211,-1.1307 6.50155,-1.27204 3.25077,-0.14134 6.07753,2.40275 1.13071,2.54408 1.8374,2.96809 0.70669,0.42402 1.27204,0.42402 0.56535,0 1.27204,0.42401 0.70669,0.42402 1.97873,3.25078 1.41338,2.82676 -0.70669,5.37084 -1.97873,2.54408 -6.21887,4.38148 -4.24014,1.83739 -9.89366,2.96809 -5.65352,1.13071 -11.30704,1.55472 -12.72042,0.98937 -19.3633,-1.97873 -9.61099,-3.25077 -12.43775,-12.86176 -3.67479,-12.72042 4.0988,-29.68098 3.53345,-7.91492 11.16571,-16.96056 6.64288,-7.91492 14.84049,-11.44837 9.46964,-4.09881 19.78732,-3.81613 11.02436,0.28268 15.2645,9.61098 2.12007,4.94683 0.84803,13.85113 -2.26141,11.58971 -5.9362,16.39521 -3.67479,4.66415 -11.1657,8.48028 z m -8.1976,-22.33141 q -7.49092,-1.55472 -11.73106,8.48028 -1.27204,2.68542 -1.97873,5.65352 4.80549,0.56535 10.17634,-5.37084 1.97873,-2.40275 2.96809,-4.80549 0.98937,-2.54409 0.56536,-3.95747 z m 84.94419,-26.14753 q 5.51218,0.70669 7.34957,3.95747 1.97874,3.10943 1.55472,6.78422 -0.42401,3.53345 -2.68542,6.50155 -2.12007,2.82676 -4.80549,2.9681 -0.98937,2.96809 -3.10944,4.0988 -2.12007,1.1307 -4.66415,1.55472 -2.54409,0.42401 -5.37085,0.98936 -2.68542,0.42402 -5.08816,2.40275 -2.40275,1.97873 -4.09881,3.95746 -1.55471,1.8374 -2.54408,3.67479 -1.69606,3.10944 -2.9681,7.63225 -0.28267,3.10944 2.9681,5.79486 3.81613,2.9681 8.33894,2.68542 4.52282,-0.42401 7.20824,0.42402 2.82676,0.70669 4.24014,2.12007 3.10944,3.25077 -0.56535,7.49091 -7.0669,11.30704 -23.74479,13.42711 -4.94683,0.70669 -9.89366,0.28267 -4.94683,-0.28267 -9.61098,-3.67478 -4.66415,-3.39212 -7.34958,-9.18697 -5.93619,-13.28577 0.98937,-30.95302 6.64289,-16.53655 19.92866,-25.44084 14.55781,-9.89366 33.92112,-7.49092 z m 32.79036,-41.553369 q 3.10944,-3.816126 7.49091,-4.24014 4.38148,-0.424014 8.48028,1.41338 4.0988,1.696056 6.92556,5.370844 2.9681,3.53345 3.25078,7.914925 l -1.27204,4.0988 q 1.55471,1.8374 2.68542,2.9681 1.27204,1.13071 1.41338,3.53345 0.84803,1.97873 -7.0669,15.68852 -3.25078,5.65352 -6.92556,11.87239 -3.53345,6.07754 -5.79486,10.88303 1.69605,-0.42402 3.39211,-0.70669 1.69606,-0.28268 3.39211,-0.70669 10.45901,-2.68542 14.1338,-2.68542 3.67479,-0.14134 6.07754,0.70669 6.50154,2.54408 6.78422,7.91492 -1.97873,4.66416 -14.84049,13.0031 -2.9681,1.83739 -4.80549,3.10944 l -12.29641,8.76295 q -0.98936,1.55472 -1.41338,2.9681 v 0.14134 q 0.28268,0.70669 3.53345,1.97873 3.39211,1.27204 5.79486,2.26141 5.65352,2.54408 10.035,6.92556 1.41338,1.55472 1.83739,4.66415 0.42402,2.9681 -0.98936,5.51218 -1.27205,2.54409 -4.66416,3.67479 -3.39211,1.13071 -9.46964,-0.98936 -8.9043,-3.95747 -21.05936,-17.66725 -1.41338,4.94683 -2.82676,9.75232 -1.27205,4.66415 -2.82676,9.61098 -2.12007,4.80549 -9.89366,4.52282 -3.10944,0 -5.65352,-1.27204 -2.40275,-1.27205 -2.82676,-3.39212 -1.13071,-3.10943 -1.13071,-4.66415 0,-1.41338 0.70669,-3.39211 3.25078,-8.1976 4.0988,-13.0031 0.84803,-4.94683 1.13071,-5.79485 -3.95747,-2.54409 -4.66416,-8.05627 -0.84802,-5.37084 2.54409,-9.61098 4.52281,-1.69606 6.50155,-2.54409 0.84802,-5.37084 2.82676,-11.58971 3.53345,-11.16571 5.37084,-19.36331 1.97873,-8.1976 5.51218,-18.51528 3.67479,-10.45901 6.50155,-21.059359 z M 797.53137,141.064 q 2.9681,-2.12007 7.34957,-0.98936 0.84803,0.14134 1.69606,0.14134 3.10944,-6.36021 10.74169,-6.64289 1.97873,-0.14134 5.51218,-0.70669 3.53345,-0.56535 8.48028,0.28268 5.08817,0.84802 8.90429,2.96809 8.33895,4.52282 10.035,13.0031 3.39211,12.43774 -0.98936,27.1369 -4.66416,16.25387 -15.82986,26.00619 -5.08817,4.52281 -10.74169,5.65352 -5.65352,1.27204 -10.17633,1.41338 -4.52282,0.14133 -8.33895,0 -3.67478,0 -7.20823,-0.70669 -7.63226,-1.55472 -12.57909,-7.20824 -5.79485,-6.36021 -4.94682,-19.78732 0.56535,-11.87239 5.93619,-23.88612 5.51218,-12.15507 12.15507,-16.67789 z m 24.87549,28.40894 q -3.53345,1.13071 -6.64289,0.98937 -1.55472,1.55472 -2.82676,3.39211 -1.1307,1.69606 -3.10944,3.25077 -1.97873,1.41338 -1.97873,1.13071 -2.40274,3.39211 -3.95746,7.0669 -1.55472,3.53345 0,7.20824 5.65352,0.56535 8.33894,-0.28268 2.68542,-0.84803 4.94683,-3.25077 2.40275,-2.40275 3.67479,-5.65352 2.54408,-6.07754 1.55472,-13.85113 z m 55.40454,-41.12936 q 0,-4.66415 -0.84803,-9.46964 -0.70669,-4.80549 -0.84803,-10.74169 -0.14134,-5.9362 2.12007,-9.469645 2.26141,-3.53345 5.51218,-5.088168 3.39212,-1.696056 7.0669,-1.41338 3.81613,0.141338 6.78423,2.261408 3.10943,1.978732 4.66415,5.794855 1.69606,3.81613 0.70669,9.32831 0.28268,8.05627 -6.50155,17.80859 -1.83739,2.54408 -3.39211,5.08817 -1.41338,2.40274 -3.95746,3.81612 -2.54409,1.27204 -5.08817,1.13071 -2.54408,-0.28268 -4.38148,-2.26141 -1.83739,-2.12007 -1.83739,-6.78423 z m 60.3514,76.46386 q -5.51218,4.52282 -13.14444,6.78422 -7.49091,2.40275 -15.12316,2.54409 -7.63225,0.14134 -14.27514,-1.8374 -6.64288,-1.97873 -10.45901,-6.21887 -4.52282,-4.80549 -3.10944,-9.61098 0.70669,-1.97873 2.54409,-3.10944 1.69605,-1.1307 4.24014,-0.56535 1.69605,0.14134 2.40274,-0.84803 0.84803,-1.1307 1.41338,-2.40274 0.56536,-1.41338 1.27205,-2.54409 0.70669,-1.27204 2.2614,-1.27204 24.87549,0.70669 25.86486,-4.38148 -1.69606,-1.55471 -4.24014,-2.68542 -2.40275,-1.1307 -4.94683,-2.26141 -6.21887,-2.82676 -8.33894,-6.21887 -2.68543,-1.41338 -4.09881,-6.78422 -0.70669,-2.40275 -0.70669,-4.94683 0,-2.54409 0.84803,-4.66416 -0.42401,-5.51218 6.78423,-12.15506 1.97873,-1.8374 4.94683,-3.95747 2.96809,-2.12007 8.90429,-4.0988 5.93619,-1.97873 11.73105,-2.82676 5.9362,-0.98937 10.60035,-0.70669 4.80549,0.28268 6.78423,2.26141 2.12007,1.97873 3.25077,4.94683 1.27204,2.9681 0.84803,5.79486 -1.13071,6.36021 -10.45901,8.76295 -11.73106,1.69606 -11.30704,3.10944 0,0.28267 -0.98937,0.70669 10.88303,7.49091 15.12317,14.69915 5.79485,9.89366 1.69605,22.04873 0.70669,3.95746 -7.0669,9.89366 -1.83739,1.41338 -3.25077,2.54408 z"
       id="text3-6-5"
       style="font-size:141.338px;font-family:Knewave;-inkscape-font-specification:'Knewave, Normal';fill:#f59e0b;stroke-width:0.666668"
       aria-label="Gecko's" />
  </g>
</svg>
